<?xml version="1.0" encoding="UTF-8"?><svg id="Layer_1" xmlns="http://www.w3.org/2000/svg" viewBox="0 0 422.34 152.78"><defs><style>.cls-1{fill:none;stroke:#fff;stroke-miterlimit:10;stroke-width:.5px;}</style></defs><path class="cls-1" d="M51.41,62.43c-18.17,8.78-35.48,18.3-41.31,29.26-5.83,10.96,2.5,23.71,26.9,29.91,12.06,3.06,26.65,4.25,40.92,5.22,50.37,3.4,101.59,4.72,152.73,4.91,26.53.1,54.93.1,76.89,5.78,10.19,2.64,18.69,6.44,30.43,7.86,9.03,1.09,18.94.6,27.87-.6,22.92-3.09,40.64-10.93,46.81-19.91,6.17-8.98,1.15-18.86-12.04-26.66-12.09-7.14-30.94-12.91-36.51-21.14-7.9-11.66,13.73-24.18,4.66-35.72-5.77-7.34-23.35-12.66-42.45-15.01-19.1-2.35-39.66-2.15-59.65-1.49-12.83.42-26.39.97-38.04-1.13-14.31-2.57-22.63-8.6-36.79-11.29-14.1-2.68-30.89-1.52-46.3-.31-15.39,1.21-32.14,2.75-41.67,7.52-6.86,3.43-8.65,7.94-9.46,12.25-1.15,6.16,4.29,12.58-7.93,16.93s-24.35,8.45-35.05,13.62Z"/><path class="cls-1" d="M352.59,143.14c-3.36.03-6.55-.12-9.48-.45-7.09-.79-13.1-2.6-19.46-4.51-3.29-.99-6.68-2.01-10.29-2.9-22.97-5.66-51.02-5.52-78.14-5.39h-1.46c-56.69.29-106.49-.88-152.28-3.56-13.64-.8-27.94-1.82-39.57-4.63-24.62-5.95-31.11-18.68-26.73-27.99,5.04-10.71,21.61-20.22,38.77-28.91,8.95-4.53,18.9-8.22,29.44-12.12l4.37-1.62c10.09-3.76,9.31-8.56,8.55-13.2-.26-1.62-.54-3.29-.33-4.88.49-3.87,1.82-8.25,7.91-11.44,8.12-4.26,22.94-5.85,38.71-7.24,8.57-.75,16.95-1.44,25.15-1.51,7.14-.06,13.15.36,18.38,1.3,6.41,1.15,11.68,3.08,17.26,5.13,6.02,2.21,12.25,4.49,20.27,5.85,6.42,1.09,13.7,1.56,22.9,1.48,5.35-.05,10.71-.27,15.89-.48l1.51-.06c8.92-.37,16.13-.57,22.7-.62,13.6-.12,25.16.39,35.34,1.54,19.74,2.24,35.24,7.44,40.47,13.57,4.63,5.44,1.83,11.23-1.14,17.36-2.92,6.03-5.94,12.27-1.45,18.33,4.24,5.72,14.38,10.21,24.19,14.55,4.91,2.17,9.99,4.42,14.14,6.75,13.32,7.49,18.18,16.93,13,25.25-5.47,8.77-21.93,16.11-42.96,19.15-5.44.79-10.7,1.21-15.62,1.25h0Z"/><path class="cls-1" d="M355.86,140.17c-2.65.03-5.18-.08-7.5-.32-6.32-.64-12.12-2.3-18.26-4.05-3.44-.98-6.98-1.99-10.82-2.89-21.63-5.05-46.56-5.25-68.24-5.05-4.21.04-8.42.1-12.61.16l-1.48.02c-5.46.08-10.86.14-16.2.19-49.83.47-94.17-.28-135.56-2.31-13.24-.65-27.09-1.49-38.2-4.03-23.29-5.32-30.06-17.25-26.5-26.07,4.2-10.41,19.85-19.88,36.13-28.57,8.46-4.51,18.06-8.25,28.22-12.2l4.26-1.66c11.23-4.39,9.99-9.8,8.9-14.57-.36-1.57-.73-3.19-.64-4.7.23-3.63,1.17-7.73,6.41-10.62,7-3.87,20.91-5.49,35.76-6.95,8.3-.81,16.39-1.55,24.18-1.69.42,0,.83-.01,1.24-.02,5.92-.06,10.91.27,15.28,1.01,5.83.98,10.97,2.77,16.41,4.67,6.44,2.25,13.09,4.57,21.9,5.97,6.62,1.05,13.86,1.5,22.77,1.41.68,0,1.37-.02,2.07-.03,5.54-.1,10.97-.38,16.22-.65l1.51-.08c8.75-.45,15.83-.71,22.28-.83,1.24-.02,2.47-.04,3.68-.05,11.57-.11,21.52.28,30.43,1.2,18.54,1.91,33.25,6.57,38.41,12.15,4.62,5,2.28,10.61-.2,16.55-2.61,6.25-5.3,12.71-.13,19.09,4.89,6.03,15.64,10.55,26.04,14.93,4.99,2.1,10.11,4.26,14.27,6.47,13.12,7,18.32,15.9,13.92,23.82-4.61,8.3-19.6,15.34-39.13,18.38-4.93.77-9.68,1.2-14.12,1.28h-.71Z"/><path class="cls-1" d="M358.69,137.31c-2,.02-3.9-.06-5.64-.22-5.54-.51-11.11-2.02-17-3.62-3.58-.97-7.26-1.97-11.34-2.88-20.55-4.55-43.6-4.96-61.39-4.8-3.22.03-6.39.08-9.49.13-3.98.07-7.96.16-11.92.25l-2.21.05c-5.43.13-10.81.24-16.12.33-9.47.17-18.86.3-27.93.38-38.54.34-73.56-.16-107.08-1.5-12.82-.51-26.22-1.21-36.76-3.49-21.88-4.75-28.77-15.87-25.91-24.2,3.46-10.11,18.25-19.51,33.71-28.16,8-4.48,17.26-8.25,27.06-12.24l4.18-1.7c12.31-5.04,10.57-11.09,9.16-15.94-.44-1.52-.89-3.09-.89-4.51.01-3.39.62-7.2,5.07-9.78,5.95-3.45,18.97-5.08,32.91-6.58,8.02-.86,15.84-1.65,23.21-1.85.39-.01.77-.02,1.15-.03.39,0,.78-.01,1.16-.02,4.76-.04,8.79.21,12.32.77,5.24.82,10.22,2.49,15.5,4.25,6.85,2.28,13.93,4.65,23.52,6.07,6.74,1,13.86,1.43,22.43,1.35.71,0,1.44-.02,2.17-.03.72-.01,1.44-.03,2.18-.05,5.71-.15,11.21-.48,16.53-.8l1.51-.09c8.6-.52,15.54-.83,21.85-1,1.21-.03,2.4-.06,3.58-.08,1.21-.02,2.4-.04,3.58-.05,9.64-.08,18.04.22,25.68.94,17.29,1.63,31.14,5.77,36.13,10.8,4.53,4.57,2.6,10,.55,15.75-2.3,6.46-4.68,13.13,1.19,19.83,5.55,6.33,16.9,10.89,27.88,15.3,5.01,2.02,10.19,4.1,14.33,6.2,12.82,6.52,18.26,14.9,14.55,22.41-3.85,7.81-17.46,14.52-35.51,17.51-4.44.74-8.69,1.16-12.63,1.27l-1.28.02Z"/><path class="cls-1" d="M360.89,134.68c-1.44.01-2.81-.04-4.06-.14-4.75-.4-10.06-1.79-15.67-3.26-3.69-.97-7.51-1.96-11.82-2.88-20.65-4.38-43.04-4.75-58.09-4.65-1.98.01-3.91.04-5.78.07-3.25.05-6.46.12-9.59.2-4,.1-7.99.22-11.96.34l-2.21.07c-5.41.16-10.76.31-16.05.44-9.38.24-18.74.43-27.8.57-7.72.12-15.4.21-22.83.26-29.57.21-56.97-.12-83.75-1.01-12.39-.41-25.33-.98-35.24-3.04-20.36-4.23-27.15-14.57-24.85-22.39,2.88-9.79,16.93-19.08,31.68-27.68,7.61-4.43,16.58-8.22,26.06-12.22l4.1-1.74c13.39-5.69,11.12-12.41,9.46-17.31-.5-1.47-1.01-2.99-1.07-4.32-.14-3.14.22-6.66,3.93-8.91,4.99-3.02,17.14-4.61,30.2-6.11,7.76-.89,15.31-1.71,22.26-1.95.35-.01.7-.02,1.05-.03.37,0,.71-.02,1.05-.02h.9c3.76-.04,6.94.15,9.72.57,4.62.69,9.42,2.23,14.5,3.87,7.24,2.33,14.72,4.73,25.1,6.19,6.83.96,13.88,1.38,22.18,1.32.65,0,1.3-.01,1.96-.02.75-.01,1.51-.03,2.28-.05.75-.02,1.51-.04,2.28-.07,5.86-.2,11.42-.57,16.81-.93l1.53-.1c8.43-.57,15.24-.93,21.44-1.14,1.19-.04,2.34-.07,3.49-.1,1.16-.03,2.32-.05,3.46-.07.99-.01,1.97-.03,2.94-.03,8.03-.06,15.11.19,21.65.76,16.01,1.39,28.89,5.05,33.61,9.56,4.34,4.15,2.73,9.39,1.02,14.94-2.05,6.66-4.17,13.55,2.36,20.56,6.17,6.63,18.08,11.25,29.6,15.71,5.04,1.96,10.22,3.96,14.29,5.96,12.4,6.07,17.93,13.93,14.78,21.02-3.24,7.3-15.59,13.64-32.22,16.54-3.97.69-7.72,1.1-11.16,1.21l-1.17.03h-.39Z"/><path class="cls-1" d="M363.48,131.93c-1.01,0-1.94-.02-2.78-.08-3.96-.3-9-1.56-14.33-2.9-3.83-.96-7.78-1.95-12.31-2.86-15.59-3.16-34.05-4.61-56.44-4.43-1.4.01-2.76.03-4.06.05-2.01.03-3.97.07-5.88.11-3.29.08-6.52.17-9.69.28-4.01.13-8.01.28-11.99.43l-2.21.08c-5.38.2-10.7.39-15.96.57-9.21.3-18.51.57-27.66.78-7.71.18-15.35.33-22.71.44-5.62.08-11.23.15-16.68.19-23.19.18-44.99,0-66.66-.55-11.96-.3-24.42-.75-33.71-2.59-18.81-3.72-25.49-13.28-23.73-20.59,2.28-9.46,15.55-18.66,29.56-27.19,7.19-4.38,15.83-8.18,24.99-12.21l4.04-1.78c14.38-6.36,11.47-13.78,9.54-18.69-.56-1.44-1.13-2.9-1.25-4.13-.27-2.73-.18-6.11,2.84-8.03,4.06-2.57,15.82-4.19,27.51-5.63,7.49-.92,14.76-1.78,21.3-2.05.32-.01.63-.02.94-.03.34-.01.65-.02.95-.03l.86-.02h.55c2.92-.03,5.37.11,7.5.4,3.99.56,8.6,1.98,13.49,3.49,7.66,2.36,15.57,4.8,26.73,6.27,6.98.92,14.05,1.32,22.24,1.25.52,0,1.04-.01,1.57-.02.69-.01,1.38-.02,2.07-.04.77-.02,1.56-.04,2.37-.07.79-.03,1.59-.06,2.4-.09,6.01-.25,11.65-.67,17.09-1.08l1.53-.12c8.24-.62,14.92-1.03,21.01-1.28,1.16-.05,2.29-.09,3.4-.13,1.1-.03,2.23-.07,3.34-.09.95-.02,1.9-.04,2.83-.05.71-.01,1.42-.02,2.12-.02,6.82-.05,12.88.14,18.54.58,14.72,1.16,26.61,4.35,31.02,8.33,4.14,3.73,2.86,8.79,1.5,14.13-1.74,6.86-3.54,13.96,3.71,21.27,6.85,6.92,19.35,11.57,31.43,16.07,5.05,1.88,10.26,3.82,14.28,5.71,11.98,5.62,17.58,12.96,14.98,19.62-2.65,6.8-13.74,12.75-28.94,15.55-3.48.64-6.75,1.03-9.7,1.15l-1.06.03h-.48Z"/><path class="cls-1" d="M366.51,128.97c-.61,0-1.16,0-1.62-.04-3.16-.21-8.15-1.4-12.97-2.54-3.98-.95-8.07-1.92-12.86-2.83-15.61-2.98-33.65-4.33-55.17-4.13-1.2.01-2.42.03-3.64.05-1.43.02-2.81.05-4.13.09-2.04.05-4.04.11-5.97.17-3.31.11-6.57.23-9.77.37-3.97.17-7.93.35-11.87.54l-2.34.11c-5.34.25-10.63.49-15.87.71-9.18.39-18.43.74-27.49,1.03-7.66.25-15.26.47-22.58.64-5.54.13-11.12.25-16.59.34-5.72.1-11.44.17-16.99.22-16.89.15-33.02.1-49.3-.16-11.52-.19-23.5-.5-32.16-2.11-17.26-3.22-23.82-11.99-22.62-18.78,1.62-9.14,14.06-18.25,27.25-26.73,6.74-4.33,15.02-8.16,23.79-12.21l3.96-1.83c15.23-7.08,11.51-15.23,9.28-20.1-.63-1.38-1.28-2.8-1.46-3.93-.24-1.47-.86-5.37,1.78-7.14,3.43-2.29,16.83-4.08,24.84-5.15,7.22-.96,14.2-1.85,20.31-2.17l.83-.04c.32-.01.58-.02.84-.03l1.28-.03h.5c2.14-.03,3.91.06,5.41.26,3.35.44,7.77,1.73,12.46,3.11,8.11,2.38,16.48,4.84,28.44,6.29,7.04.85,14.05,1.22,22.04,1.14.58,0,1.17-.01,1.77-.02.54,0,1.08-.02,1.63-.03.75-.02,1.47-.04,2.2-.06.78-.03,1.61-.06,2.45-.09.84-.04,1.68-.07,2.53-.12,6.14-.31,11.83-.79,17.33-1.26l1.54-.13c8.09-.68,14.62-1.14,20.56-1.45,1.13-.06,2.23-.11,3.31-.16,1.04-.04,2.14-.08,3.21-.12.91-.03,1.82-.06,2.72-.08.7-.02,1.37-.03,2.04-.04.72-.01,1.42-.02,2.11-.03,5.64-.05,10.72.08,15.52.41,13.42.93,24.29,3.65,28.38,7.1,3.92,3.32,3,8.18,2.02,13.32-1.34,7.06-2.74,14.37,5.35,21.97,7.64,7.19,20.78,11.85,33.49,16.36,5.1,1.81,10.33,3.67,14.29,5.44,11.56,5.17,17.25,11.98,15.21,18.22-2.04,6.29-11.87,11.86-25.65,14.55-3,.58-5.77.95-8.24,1.07l-.83.03h-.55Z"/><path class="cls-1" d="M368.56,126.36c-.21,0-.41,0-.58,0-2.37-.14-7.47-1.31-11.57-2.24-4.14-.94-8.35-1.91-13.34-2.82-15.37-2.81-32.78-4.1-53.2-3.97-1.38,0-2.77.02-4.17.05-1.23.02-2.47.04-3.72.07-1.46.03-2.86.07-4.22.11-2.07.06-4.1.13-6.06.21-3.34.13-6.63.28-9.85.44-3.8.19-7.6.39-11.38.59l-2.86.16c-5.31.29-10.57.56-15.77.81-9.18.45-18.38.86-27.34,1.21-7.58.3-15.13.56-22.45.79-5.55.17-11.1.32-16.49.45-5.6.13-11.29.25-16.9.34-6.23.1-12.45.17-18.5.21-10.29.07-20.27.06-30.52-.04-11.08-.1-22.56-.33-30.54-1.75-15.6-2.78-21.82-10.79-21-17.06,1.15-8.8,12.92-17.78,25.46-26.18,6.37-4.26,14.37-8.09,22.84-12.15l3.89-1.87c16.13-7.77,11.8-16.36,9.22-21.49-.67-1.33-1.36-2.7-1.57-3.74-.83-4.03.05-5.61.94-6.23,2.55-1.78,15.9-3.66,22.32-4.57,6.95-.98,13.66-1.89,19.37-2.22l.78-.04c.25-.01.46-.02.67-.03l1.21-.04h.8c1.4-.02,2.53.03,3.45.14,2.7.33,7.1,1.58,11.36,2.78,8.51,2.41,17.31,4.9,30.06,6.35,6.96.79,13.77,1.14,21.42,1.09.68,0,1.38-.01,2.07-.02.61,0,1.23-.02,1.85-.04l2.11-.06c.65-.02,1.29-.04,1.93-.07.79-.03,1.65-.07,2.53-.11.88-.04,1.75-.09,2.64-.14,6.3-.36,12.04-.89,17.6-1.4l1.53-.14c7.94-.73,14.33-1.22,20.13-1.56,1.1-.06,2.16-.12,3.21-.17.99-.05,2.05-.1,3.1-.14.87-.03,1.74-.07,2.6-.09.7-.02,1.33-.04,1.96-.05.7-.02,1.37-.03,2.04-.04.73-.01,1.46-.02,2.17-.02,4.49-.03,8.57.07,12.49.32,12.08.75,21.86,3.05,25.51,5.99,3.61,2.91,2.93,7.57,2.22,12.51-1.05,7.27-2.13,14.77,6.69,22.67,8.35,7.48,22.06,12.17,35.31,16.71,5.07,1.74,10.31,3.53,14.19,5.21,11.01,4.75,16.62,11.05,15,16.85-1.61,5.77-10.32,10.92-22.73,13.45-2.54.52-4.84.84-6.81.95l-.57.03h-.43s-.09.01-.09.01Z"/><path class="cls-1" d="M370.78,123.72c-1.81-.16-7.32-1.36-10-1.95-4.31-.94-8.66-1.9-13.83-2.79-15.38-2.68-32.5-3.91-52.34-3.78-.98,0-1.97.02-2.97.03-1.41.02-2.84.05-4.28.08-1.25.03-2.52.06-3.79.1-1.49.05-2.92.09-4.3.15-2.09.08-4.15.16-6.15.26-3.36.16-6.68.33-9.93.51-3.81.21-7.61.44-11.4.67l-2.86.17c-5.27.32-10.5.63-15.68.92-9.01.51-18.15.97-27.17,1.39-7.56.35-15.07.67-22.32.94-5.58.21-11.1.4-16.39.56-5.47.17-11.12.32-16.79.45-6.17.14-12.36.25-18.38.33-4.27.06-8.48.1-12.68.13-5.91.04-11.68.05-17.65.04-10.63-.03-21.61-.16-28.9-1.4-13.92-2.36-19.73-9.62-19.25-15.36.71-8.47,11.82-17.31,23.71-25.61,6.01-4.19,13.73-8.03,21.91-12.09l3.8-1.89c16.97-8.48,11.98-17.5,9-22.89-.7-1.28-1.43-2.6-1.68-3.55-1.09-4.32.12-5.27.17-5.31.79-.57,4.87-1.72,19.86-3.95,6.68-1,13.12-1.92,18.42-2.26l1.23-.07,1.13-.04h.78c.98-.02,1.52.02,1.8.05,2.04.23,6.58,1.47,10.22,2.46,8.94,2.44,18.16,4.95,31.71,6.39,6.98.74,13.73,1.07,21.23,1.02.51,0,1.02,0,1.54-.02.72-.01,1.44-.02,2.16-.04.65-.01,1.29-.03,1.94-.05l2.15-.07c.79-.03,1.44-.06,2.1-.09.77-.03,1.67-.08,2.59-.13.91-.05,1.83-.11,2.76-.17,6.41-.41,12.21-.99,17.82-1.55l1.55-.15c7.79-.77,14.05-1.3,19.7-1.67,1.07-.07,2.11-.13,3.12-.19.93-.05,1.95-.1,2.96-.15.83-.04,1.65-.08,2.47-.1.71-.03,1.31-.05,1.9-.07.67-.02,1.32-.04,1.95-.05.7-.02,1.39-.03,2.07-.04.48,0,.96-.01,1.44-.01,3.67-.03,7.04.05,10.31.23,10.57.58,19.43,2.52,22.55,4.92,3.26,2.51,2.82,6.97,2.36,11.7-.73,7.46-1.47,15.17,8.13,23.36,9.09,7.75,23.38,12.47,37.2,17.03,5.04,1.67,10.26,3.39,14.07,4.98,10.43,4.34,15.92,10.13,14.67,15.49-1.22,5.24-8.84,9.96-19.91,12.31-2.6.55-4.37.75-5.4.81l-.3.02h-.19Z"/><path class="cls-1" d="M372.56,121.37c-1.1-.18-3.43-.62-8.26-1.65-4.37-.93-8.89-1.89-14.27-2.8-15.29-2.58-32.08-3.79-51.33-3.7-.99,0-1.98.01-2.99.02s-2.02.03-3.04.04c-1.45.03-2.91.06-4.39.1-1.27.03-2.57.07-3.87.12-1.51.05-2.97.11-4.37.17-2.11.09-4.21.19-6.24.29-3.38.17-6.73.36-10,.56-3.82.23-7.64.48-11.44.73l-2.86.19c-5.25.34-10.45.67-15.59.99-8.93.54-18.02,1.05-27.02,1.51-7.46.38-14.92.73-22.19,1.04-5.61.24-11.09.45-16.29.63-5.4.19-11.02.37-16.69.52-6.11.17-12.26.31-18.27.41-4.24.08-8.43.14-12.6.19-4.23.05-8.4.08-12.63.1-1.63,0-3.27.01-4.92.02-10.17.02-20.66-.05-27.22-1.13-11.62-1.91-17.42-8.36-17.13-13.73.43-8.12,11.02-16.81,22.41-24.98,5.73-4.11,13.23-7.93,21.18-11.98l3.75-1.91c17.89-9.17,12.35-18.62,9.04-24.27-.72-1.23-1.46-2.5-1.71-3.37-.79-2.78-.51-3.98-.35-4.38.9-.3,4.49-1.28,17.43-3.27,6.43-.99,12.61-1.91,17.52-2.25l1.14-.07.78-.03h.66c.27-.01.44-.01.55,0,1.29.16,6.39,1.51,8.83,2.16,9.36,2.49,18.98,5.05,33.3,6.5,6.95.71,13.59,1.02,20.9.99.53,0,1.06,0,1.6-.01.54,0,1.08-.01,1.62-.02.75-.01,1.5-.03,2.25-.05.68-.02,1.36-.04,2.04-.06l2.55-.1c.7-.03,1.31-.06,1.92-.09.75-.04,1.69-.09,2.65-.15.95-.06,1.9-.12,2.87-.19,6.53-.45,12.39-1.06,18.07-1.65l1.57-.16c7.66-.8,13.79-1.34,19.3-1.73,1.05-.07,2.05-.14,3.05-.2.85-.05,1.85-.11,2.83-.16.78-.04,1.56-.08,2.33-.11.72-.03,1.29-.05,1.85-.07.65-.02,1.27-.04,1.89-.06.64-.02,1.3-.03,1.95-.04.46,0,.92-.02,1.37-.02.43,0,.86,0,1.28-.01,2.95-.01,5.68.05,8.35.18,9.09.46,16.9,2.04,19.44,3.94,2.84,2.13,2.54,6.59,2.26,10.9-.5,7.65-1.03,15.56,9.25,24.05,9.73,8.04,24.53,12.81,38.85,17.43,5,1.61,10.17,3.28,13.87,4.78,9.75,3.96,14.99,9.27,14,14.18-.95,4.71-7.6,8.97-17.38,11.1-1.62.35-2.75.52-3.43.59Z"/><path class="cls-1" d="M374.69,118.61c-1.21-.22-3.18-.6-6.37-1.25-4.5-.92-9.14-1.87-14.76-2.77-15.46-2.49-32.24-3.64-51.3-3.51-.66,0-1.32,0-1.98.02-1.02.01-2.03.03-3.06.04-1.02.02-2.06.04-3.1.07-1.5.04-2.99.08-4.5.13-1.29.04-2.62.09-3.96.15-1.54.06-3.02.13-4.45.2-2.13.1-4.26.22-6.32.34-3.39.19-6.76.41-10.07.63-3.84.26-7.65.53-11.46.81l-2.84.21c-5.21.38-10.38.74-15.49,1.08-8.89.6-17.92,1.17-26.84,1.68-7.41.43-14.83.82-22.04,1.18-5.64.27-11.08.52-16.18.73-5.33.22-10.91.43-16.58.63-6.04.2-12.14.38-18.14.53-4.21.11-8.37.19-12.51.27-4.21.08-8.35.14-12.55.18-1.62.02-3.25.03-4.89.05l-2.33.02c-8.87.06-17.83,0-23.21-.85-9.85-1.54-15.12-7.38-15.08-12.09.06-7.78,10.04-16.32,20.81-24.39,5.39-4.04,12.63-7.86,20.29-11.9l3.66-1.94c18.63-9.9,12.37-19.77,8.64-25.67-.75-1.18-1.52-2.41-1.77-3.18-.55-1.67-.66-2.71-.65-3.3,1.81-.44,5.96-1.32,14.79-2.75,6.17-1,12.08-1.93,16.58-2.27l1.04-.07.4-.02c.82.18,2.88.66,7.39,1.82,9.76,2.5,19.84,5.08,34.95,6.51,7.05.67,13.72.95,20.99.91h1.1c.55-.02,1.11-.02,1.66-.03l1.7-.04c.79-.02,1.57-.04,2.35-.07.72-.02,1.43-.05,2.14-.08l2.84-.13c.66-.03,1.25-.07,1.84-.1.72-.04,1.7-.1,2.7-.17.98-.07,1.98-.14,2.99-.22,6.67-.51,12.59-1.16,18.31-1.8l1.55-.17c7.5-.83,13.49-1.41,18.86-1.82,1.02-.08,2-.15,2.96-.21.78-.05,1.75-.11,2.7-.17.74-.04,1.47-.08,2.19-.12.75-.04,1.28-.06,1.8-.08.63-.03,1.23-.05,1.82-.07.57-.02,1.2-.04,1.82-.05.43-.01.85-.02,1.27-.03.45,0,.85-.01,1.24-.02h.72c2.47-.02,4.76.02,7,.11,8.52.37,14.65,1.77,16.31,2.95,2.42,1.74,2.33,6.18,2.25,10.1-.16,7.84-.33,15.95,10.76,24.71,10.5,8.3,25.9,13.09,40.79,17.73,4.98,1.55,10.12,3.15,13.72,4.56,9.1,3.58,14.13,8.38,13.44,12.85-.65,4.18-6.32,7.98-14.78,9.91-.43.1-.81.18-1.14.24Z"/><path class="cls-1" d="M100.94,119.45c-5.33.04-12.92.03-17.18-.6-7.89-1.16-12.81-6.23-13.01-10.47-.36-7.44,8.92-15.84,19-23.81,5.02-3.97,11.95-7.79,19.28-11.84l3.56-1.97c19.18-10.67,12.06-20.95,7.8-27.08-.74-1.08-1.59-2.3-1.86-2.98-.36-.92-.56-1.63-.67-2.16,2.19-.48,5.9-1.22,11.99-2.27,5.77-.99,11.28-1.91,15.35-2.28,1.08.25,2.91.67,5.93,1.41,10.21,2.5,20.76,5.07,36.68,6.44,6.96.6,13.48.85,20.53.79.54,0,1.08-.01,1.62-.02l1.13-.02c.59-.01,1.17-.02,1.76-.04l1.74-.05c.88-.03,1.68-.06,2.48-.09.75-.03,1.49-.07,2.24-.1l2.88-.16c.75-.04,1.38-.08,2.01-.13.67-.04,1.69-.11,2.74-.19,1.02-.08,2.06-.16,3.11-.25,6.81-.57,12.76-1.29,18.52-1.98l1.53-.18c7.35-.88,13.2-1.5,18.41-1.94.99-.08,1.93-.16,2.87-.23.72-.05,1.65-.12,2.56-.18.69-.04,1.37-.09,2.04-.13.78-.05,1.27-.07,1.75-.1.62-.03,1.19-.06,1.75-.08.63-.02,1.17-.05,1.7-.06.41-.01.81-.03,1.2-.04.44-.01,1.87-.04,1.87-.04h.96c1.91-.03,3.7,0,5.46.06,7.6.27,12.3,1.43,13.12,1.99,1.99,1.35,2.15,5.94,2.27,9.29.29,8.03.58,16.34,12.62,25.34,11.4,8.54,27.44,13.31,42.96,17.93,4.96,1.48,10.08,3,13.6,4.33,8.46,3.18,13.27,7.48,12.88,11.5-.35,3.5-4.66,6.71-11.33,8.48-1.19-.22-2.6-.49-4.22-.8-4.63-.9-9.42-1.83-15.28-2.71-15.39-2.33-31.86-3.39-50.36-3.23-.95,0-1.91.02-2.87.03l-2.03.03c-1.05.02-2.09.04-3.14.07-1.04.03-2.09.06-3.16.09-1.55.05-3.07.11-4.62.17-1.31.05-2.67.12-4.04.19-1.55.08-3.06.16-4.51.24-2.16.12-4.31.26-6.41.4-3.4.22-6.79.47-10.12.72-3.85.29-7.67.6-11.47.91l-2.83.23c-5.17.42-10.3.82-15.37,1.21-8.83.67-17.79,1.31-26.63,1.89-7.33.49-14.69.94-21.87,1.35-5.68.32-11.09.61-16.06.86-5.31.27-10.85.52-16.46.76-5.92.25-11.98.48-18,.68-4.18.14-8.3.26-12.42.37-4.18.11-8.29.2-12.46.28-1.61.03-3.22.06-4.86.09l-2.32.04c-1.44.02-2.9.04-4.34.05Z"/><path class="cls-1" d="M99.36,118.64c-7.34.05-10.75-.21-12.32-.43-5.4-.76-10.28-4.83-10.65-8.9-.65-7.09,8.07-15.33,17.59-23.18,4.72-3.89,11.38-7.7,18.45-11.74l3.47-1.99c19.82-11.42,11.92-22.1,7.21-28.48-.74-1-1.63-2.21-1.88-2.79-.15-.35-.29-.69-.4-1,2.07-.43,5.02-1.01,9.12-1.74,4.76-.85,9.32-1.65,12.85-2.09,1.05.24,2.46.56,4.32,1,10.63,2.51,21.62,5.1,38.34,6.42,6.69.53,12.9.76,19.55.72.68,0,1.36-.01,2.04-.02.57,0,1.13-.02,1.69-.03l1.15-.03c.62-.02,1.21-.03,1.8-.05l1.83-.06c.97-.04,1.79-.08,2.62-.12.78-.04,1.56-.08,2.34-.12l2.91-.18c.84-.05,1.51-.1,2.19-.15.63-.04,1.69-.12,2.77-.21,1.06-.09,2.14-.18,3.23-.28,6.92-.63,12.92-1.39,18.72-2.13l1.54-.19c7.22-.92,12.94-1.56,17.98-2.02.95-.09,1.88-.17,2.79-.24l.22-.02c.65-.05,1.43-.11,2.2-.17.76-.05,1.34-.1,1.91-.13.79-.05,1.24-.08,1.69-.1.61-.04,1.15-.06,1.68-.09.57-.03,1.08-.05,1.59-.07l1.1-.04c.45-.01,1.81-.05,1.81-.05h.87c.34-.02.7-.02,1.05-.02,1.35,0,2.62,0,3.9.04,5.86.17,9.16.93,9.92,1.18,1.41,1.15,1.8,6.23,1.97,8.42.64,8.22,1.31,16.71,14.2,25.98,12.21,8.79,28.84,13.57,44.93,18.2,4.95,1.43,10.02,2.89,13.41,4.12,7.73,2.82,12.23,6.63,12.03,10.2-.15,2.61-2.89,5.07-7.29,6.65-.55-.1-1.14-.21-1.75-.32-4.77-.89-9.69-1.8-15.76-2.68-15.06-2.17-30.96-3.17-48.62-3.06-1.18,0-2.36.02-3.55.04-.97.01-1.95.03-2.94.05l-2.06.05c-1.1.03-2.16.06-3.23.09-1.07.03-2.14.07-3.22.12-1.59.06-3.15.13-4.72.21-1.34.07-2.74.14-4.13.22-1.57.09-3.1.18-4.57.27-2.17.14-4.36.29-6.49.44-3.41.25-6.83.52-10.17.79-3.86.32-7.68.65-11.49.99l-2.82.25c-5.13.45-10.23.88-15.27,1.3-8.74.72-17.64,1.41-26.45,2.05-7.2.52-14.51,1.02-21.72,1.48-5.63.36-10.99.68-15.94.96-5.25.3-10.74.59-16.34.86-5.91.29-11.92.55-17.87.79-4.15.16-8.24.31-12.32.44-4.15.13-8.23.25-12.37.36-1.59.04-3.2.08-4.83.12l-2.3.05c-1.41.03-2.84.06-4.26.08-1.01.02-2.11.03-3.25.04Z"/><path class="cls-1" d="M99.26,117.76c-6.31.04-8.63-.21-9.19-.28-2.9-.39-7.62-3.53-8.13-7.38-.88-6.74,7.32-14.81,16.31-22.53,4.43-3.8,10.86-7.6,17.67-11.62l3.4-2.01c20.44-12.17,11.77-23.26,6.6-29.88-.59-.76-1.45-1.86-1.79-2.44,1.84-.37,3.91-.77,6.17-1.2,3.64-.68,7.4-1.37,10.47-1.83.74.16,1.59.36,2.56.58,11.05,2.52,22.47,5.12,39.98,6.41,6.53.48,12.54.68,18.93.65.53,0,1.06,0,1.6-.01.71,0,1.42-.02,2.14-.03.59-.01,1.17-.03,1.76-.04l1.17-.03c.67-.02,1.28-.04,1.89-.07l1.87-.08c1.05-.05,1.9-.09,2.75-.14.83-.04,1.63-.09,2.45-.14l2.96-.2c.93-.07,1.65-.12,2.37-.18.57-.04,1.67-.13,2.8-.23,1.09-.1,2.21-.2,3.34-.31,7.04-.68,13.1-1.49,18.96-2.28l1.52-.2c7.09-.94,12.67-1.6,17.56-2.08.92-.09,1.82-.17,2.71-.25h.1c.76-.07,1.48-.13,2.18-.19.79-.06,1.27-.1,1.76-.13.8-.06,1.22-.08,1.63-.11.62-.04,1.13-.07,1.63-.1.5-.03.99-.05,1.47-.07l1.05-.04c.28-.01,1.56-.05,1.65-.06l.83-.02,1.65-.02c.95,0,1.87,0,2.78.02,3.36.08,5.54.38,6.66.58.46.81,1.05,2.79,1.59,7.39.99,8.4,2.01,17.09,15.75,26.62,13.01,9.03,30.22,13.84,46.86,18.48,4.88,1.36,9.93,2.77,13.18,3.92,6.97,2.46,11.1,5.8,11.05,8.92-.03,1.74-1.43,3.42-3.85,4.7-4.54-.81-9.27-1.64-15.06-2.44-14.91-2.05-30.5-3-47.65-2.9-.89,0-1.77.01-2.67.02-1.2.01-2.42.03-3.64.06-1,.02-2,.04-3,.07l-2.09.06c-1.15.04-2.22.07-3.31.11-1.1.04-2.19.09-3.3.14-1.63.07-3.21.15-4.82.24-1.38.08-2.8.16-4.22.25-1.59.1-3.14.2-4.64.31-2.19.15-4.41.32-6.56.49-3.42.27-6.87.56-10.23.86-3.88.34-7.7.7-11.52,1.06l-2.8.26c-5.1.48-10.16.94-15.16,1.38-8.67.77-17.51,1.51-26.26,2.19-7.11.56-14.37,1.1-21.57,1.6-5.49.38-10.81.73-15.82,1.04-5.09.32-10.55.64-16.22.95-5.8.32-11.77.61-17.73.88-4.12.19-8.18.35-12.23.51-4.12.16-8.18.3-12.28.43l-4.79.14-2.28.06c-1.37.04-2.78.07-4.17.1-.99.02-2.05.04-3.16.05-.55,0-1.08.01-1.59.01Z"/><path class="cls-1" d="M100.38,117.31c-4.08.04-5.87-.08-6.39-.12-1.45-.42-5.16-2.69-5.77-5.87-1.23-6.39,6.3-14.31,14.61-21.91,4.07-3.72,10.18-7.53,16.65-11.55l3.28-2.04c20.72-13,11-24.45,5.19-31.29-.28-.33-.61-.73-.93-1.11.95-.19,1.94-.39,2.98-.6,2.64-.52,5.58-1.1,8.15-1.55.23.05.46.1.71.15,11.53,2.49,23.44,5.06,41.76,6.24,6.37.41,12.21.57,18.36.52.49,0,.98-.01,1.48-.02.56,0,1.11-.02,1.66-.03.74-.01,1.49-.03,2.24-.06.61-.02,1.21-.04,1.83-.06l1.18-.04c.72-.03,1.34-.06,1.97-.08l1.91-.1c1.13-.06,2-.11,2.88-.17.86-.05,1.7-.11,2.55-.17l2.98-.23c1.04-.08,1.79-.15,2.55-.22.49-.04,1.64-.15,2.81-.26,1.12-.11,2.27-.23,3.44-.36,7.17-.76,13.25-1.64,19.13-2.48l1.5-.21c6.91-.99,12.33-1.69,17.08-2.19.86-.09,1.7-.18,2.53-.26.06,0,.12,0,.15-.01.73-.07,1.41-.13,2.09-.19.73-.06,1.17-.1,1.62-.14.78-.06,1.17-.09,1.56-.12.63-.05,1.1-.08,1.57-.11.44-.03.9-.05,1.35-.08l1-.05,1.63-.07.64-.02,1.53-.03h.47c.64-.01,1.27,0,1.9,0,1.26.02,2.29.07,3.11.14.38.99.91,2.82,1.51,6.22,1.54,8.58,3.12,17.45,17.94,27.18,14.04,9.23,31.93,13.98,49.24,18.58,4.86,1.29,9.88,2.63,13.03,3.69,6.23,2.1,10.02,4.95,10.14,7.61.04.9-.38,1.79-1.19,2.59-3.66-.6-7.47-1.18-11.93-1.75-14.82-1.89-30.15-2.74-46.87-2.59-.82,0-1.64.02-2.47.03-.91.01-1.82.03-2.74.05-1.22.02-2.46.06-3.71.09-1.03.03-2.05.06-3.07.1l-2.12.08c-1.18.05-2.28.1-3.39.15-1.13.05-2.24.11-3.37.17-1.66.09-3.28.19-4.91.29-1.42.09-2.86.19-4.32.29-1.59.11-3.18.23-4.7.35-2.19.17-4.44.36-6.62.55-3.42.3-6.88.63-10.26.96-3.88.38-7.7.77-11.51,1.17l-2.78.29c-5.05.52-10.06,1.02-15.02,1.51-8.51.84-17.26,1.65-26.02,2.42-7,.62-14.19,1.22-21.37,1.78-5.44.43-10.72.82-15.67,1.18-5.05.36-10.46.73-16.07,1.08-5.69.36-11.6.71-17.57,1.03-4.08.22-8.11.42-12.12.61-4.09.19-8.11.37-12.18.53l-4.76.19-2.25.08c-1.34.05-2.71.09-4.07.13-.97.03-2,.06-3.06.08-.53.01-1.04.02-1.53.03h-1.17Z"/><path class="cls-1" d="M100.63,116.6c-1.24,0-2.14,0-2.77-.02-1.12-.62-3.28-2.25-3.8-4.42-1.45-6.04,5.53-13.78,13.29-21.26,3.77-3.63,9.62-7.42,15.81-11.44l3.18-2.06c20.9-13.66,10.64-25.4,4.25-32.49,1.82-.38,3.82-.78,5.72-1.15,11.69,2.41,23.83,4.82,42.22,5.87,5.88.33,11.22.47,16.8.43.8,0,1.59-.02,2.4-.03l1.49-.03c.63-.01,1.21-.03,1.79-.04.75-.02,1.55-.05,2.34-.08.62-.02,1.25-.05,1.89-.07l1.19-.05c.76-.04,1.41-.07,2.05-.1l1.96-.11c1.2-.07,2.1-.13,3-.2.88-.06,1.76-.13,2.64-.2l3.01-.25c1.15-.1,1.94-.17,2.74-.26.38-.03,1.59-.15,2.82-.28,1.15-.12,2.34-.25,3.55-.4,7.29-.83,13.41-1.76,19.33-2.66l1.48-.22c6.75-1.02,12.03-1.74,16.63-2.27.8-.09,1.59-.18,2.37-.26.09,0,1.54-.16,2.19-.22.65-.06,1.06-.1,1.47-.13.76-.07,1.12-.1,1.48-.12.64-.05,1.08-.09,1.51-.12.4-.03.83-.06,1.26-.08l.93-.05,1.56-.08,1.92-.06h.97c.15-.01.3-.01.45-.01.35,1.03.78,2.57,1.29,4.83,1.99,8.75,4.04,17.81,19.83,27.76,14.97,9.44,33.49,14.17,51.39,18.75,4.88,1.25,9.82,2.51,12.81,3.48,5.43,1.77,8.79,4.14,8.99,6.35,0,.1.01.2,0,.3-2.22-.32-4.74-.66-7.51-.99-14.26-1.71-28.87-2.49-44.63-2.38-1.27,0-2.54.02-3.82.04-.84.01-1.68.03-2.53.05-.94.02-1.87.04-2.81.07-1.24.03-2.52.08-3.79.12-1.07.04-2.1.08-3.15.12l-2.13.1c-1.23.06-2.34.11-3.46.17-1.17.06-2.31.13-3.45.2-1.69.1-3.33.21-5,.33-1.45.1-2.92.21-4.41.33-1.6.13-3.21.26-4.76.39-2.2.19-4.48.39-6.68.61-3.43.32-6.9.68-10.3,1.03-3.89.41-7.71.83-11.52,1.25l-2.76.31c-5,.55-9.97,1.09-14.89,1.6-8.33.88-17,1.75-25.8,2.59-6.86.65-13.99,1.3-21.19,1.92-5.31.46-10.54.89-15.53,1.28-5.1.4-10.46.8-15.94,1.19-5.67.4-11.53.79-17.42,1.15-4.05.25-8.03.48-12.01.69-4.06.22-8.05.42-12.09.62l-4.73.22-2.22.1c-1.31.06-2.66.11-3.99.16-.94.03-1.93.07-2.97.1l-1.31.03-1.29.02c-.47,0-.94.01-1.37.02Z"/><path class="cls-1" d="M101.98,115.81c-.87-.68-1.84-1.71-2.19-2.94-1.61-5.69,4.86-13.25,12.11-20.58,3.49-3.54,9.09-7.31,15.02-11.3l3.09-2.09c20.14-13.68,10.88-25.58,4.37-32.56.14-.03.28-.06.42-.09,10.37,2.05,23.25,4.43,41.87,5.37,5.5.28,10.47.39,15.65.36.63,0,1.25-.01,1.89-.02.83-.01,1.66-.03,2.5-.05l1.51-.04c.68-.02,1.29-.04,1.9-.06.79-.03,1.62-.06,2.46-.1.61-.03,1.28-.06,1.95-.09l1.2-.06c.82-.04,1.48-.08,2.15-.12l1.99-.13c1.27-.08,2.2-.15,3.13-.22.9-.07,1.82-.14,2.74-.22l3.03-.27c1.26-.12,2.09-.2,2.93-.29.27-.02,1.53-.16,2.83-.3,1.19-.13,2.42-.28,3.65-.43,7.39-.89,13.56-1.88,19.53-2.83l1.45-.23c6.59-1.04,11.73-1.78,16.2-2.33.77-.09,2.58-.3,2.58-.3l1.77-.19c.66-.07.99-.1,1.32-.13.75-.07,1.08-.1,1.41-.13.64-.06,1.04-.09,1.44-.12l1.19-.09,1.32-.08c.3.93.62,2.01.95,3.22,2.42,8.93,4.92,18.16,21.68,28.34,15.88,9.65,35.01,14.37,53.51,18.92,4.79,1.18,9.73,2.4,12.56,3.29,2.66.84,4.75,1.83,6.08,2.86-.13-.01-.26-.03-.39-.04-13.9-1.57-28.02-2.29-43.14-2.19-.98,0-1.97.02-2.96.03-1.3.02-2.61.04-3.92.07-.85.02-1.71.04-2.58.06-.98.03-1.93.06-2.89.09-1.26.04-2.56.09-3.87.15-1.11.05-2.16.1-3.22.15l-2.15.11c-1.28.07-2.4.13-3.54.2-1.22.07-2.37.15-3.53.23-1.71.12-3.38.24-5.08.37-1.49.11-3,.24-4.51.37-1.6.14-3.23.28-4.81.43-2.21.2-4.52.43-6.75.66-3.42.35-6.92.73-10.34,1.11-3.89.44-7.71.88-11.52,1.33l-2.75.32c-4.95.58-9.88,1.15-14.76,1.69-8.22.93-16.83,1.85-25.59,2.74-6.88.7-13.95,1.39-21.01,2.05-5.31.49-10.49.95-15.4,1.37-5.04.43-10.35.86-15.8,1.28-5.58.43-11.39.85-17.27,1.25-4.02.27-7.96.53-11.9.77-4.02.25-7.98.47-11.99.69l-4.7.25-2.18.11c-1.29.06-2.61.12-3.91.18-.9.04-1.86.08-2.87.11l-1.28.04-1.21.03c-.39,0-1.39.02-1.39.02Z"/><path class="cls-1" d="M106.42,114.94c-.34-.39-.65-.87-.83-1.4-1.76-5.33,4.22-12.72,10.94-19.9,3.22-3.44,8.56-7.19,14.21-11.16l3.02-2.12c17.81-12.61,12.06-23.76,6.42-30.41,9.39,1.58,20.53,3.05,34.73,3.67,5.11.23,9.72.32,14.51.28.59,0,1.19-.01,1.79-.02.65,0,1.3-.02,1.96-.03.87-.02,1.74-.04,2.61-.07l1.52-.05c.74-.02,1.37-.05,2-.08.83-.03,1.69-.07,2.56-.12.61-.03,1.31-.06,2.01-.1l1.21-.07c.87-.05,1.56-.1,2.25-.14l2.02-.14c1.34-.1,2.29-.18,3.25-.26.92-.08,1.88-.16,2.84-.25l3.06-.3c1.37-.14,2.24-.23,3.11-.33.11-.01,1.46-.16,2.83-.32,1.23-.15,2.49-.3,3.76-.47,7.5-.96,13.71-2,19.71-3l1.43-.24c6.44-1.07,11.45-1.83,15.75-2.38.75-.1,2.5-.31,2.51-.31l1.67-.19c.55-.06.85-.09,1.15-.12.27-.03.48-.05.65-.06.15.46.31.94.47,1.44,2.89,9.1,5.87,18.5,23.64,28.89,16.84,9.85,36.6,14.53,55.7,19.06,2.53.6,5.09,1.21,7.34,1.77-8.83-.57-17.82-.81-27.17-.75-.92,0-1.83.02-2.76.03-1,.01-2.01.03-3.03.05-1.34.03-2.68.06-4.02.1-.86.02-1.74.05-2.63.08-1.02.04-1.99.07-2.96.11-1.27.05-2.61.11-3.95.18-1.13.06-2.21.11-3.28.17l-2.16.12c-1.33.08-2.46.15-3.62.23-1.26.09-2.43.17-3.61.26-1.74.13-3.43.26-5.16.41-1.52.13-3.06.26-4.61.41-1.61.15-3.26.31-4.86.47-2.21.22-4.55.46-6.82.71-3.42.37-6.93.78-10.36,1.19-3.89.47-7.71.94-11.51,1.42l-2.73.34c-4.9.61-9.78,1.21-14.62,1.78-8.16.98-16.69,1.95-25.36,2.9-6.82.75-13.83,1.48-20.82,2.18-5.18.52-10.32,1.01-15.25,1.46-5,.46-10.26.93-15.65,1.38-5.52.47-11.28.92-17.11,1.36-3.98.3-7.89.57-11.79.84-3.99.27-7.91.52-11.89.76l-4.66.28-2.14.12c-1.27.07-2.56.14-3.84.2-.86.04-1.78.09-2.75.13l-.66.03Z"/><path class="cls-1" d="M111.92,114.18c-1.75-4.97,3.57-12.08,9.59-19.04,2.89-3.35,7.92-7.09,13.24-11.05l2.89-2.15c12-9.01,14.47-18.57,7.39-28.48,7.22.94,16.53,1.87,27.84,2.26,4.67.16,8.85.22,13.16.18.64,0,1.28-.01,1.93-.02.61,0,1.23-.02,1.85-.04.67-.01,1.33-.03,1.99-.05.97-.03,1.86-.06,2.76-.09l1.54-.06c.8-.03,1.46-.07,2.12-.1.85-.04,1.75-.09,2.65-.15.61-.04,1.34-.08,2.07-.13l1.22-.08c.93-.07,1.64-.12,2.35-.17l2.03-.16c1.41-.12,2.39-.21,3.37-.3.93-.08,1.93-.18,2.93-.29l3.08-.33c1.47-.16,2.38-.27,3.29-.39h-.11c.44-.04,1.68-.19,2.95-.35,1.25-.16,2.54-.34,3.84-.52,7.56-1.05,13.77-2.15,19.77-3.22l1.46-.26c6.26-1.11,11.1-1.9,15.27-2.48.24-.03.59-.08.95-.13,3.48,9.1,7.33,18.52,25.99,28.87,15.47,8.59,32.75,13.18,49.86,17.12-2.14-.01-4.3,0-6.49.01-.96,0-1.92.02-2.89.04-.94.02-1.87.03-2.81.05-1.03.02-2.07.05-3.11.08-1.38.04-2.74.09-4.12.14-.87.03-1.77.07-2.67.11-1.07.05-2.06.1-3.05.15-1.28.06-2.65.14-4.02.22-1.16.07-2.25.14-3.35.21l-2.17.15c-1.37.1-2.52.18-3.69.27-1.3.1-2.48.2-3.68.3-1.75.15-3.48.3-5.22.46-1.56.15-3.13.3-4.7.46-1.61.16-3.29.34-4.9.52-2.21.24-4.58.51-6.86.79-3.4.4-6.93.85-10.37,1.29-3.89.5-7.69,1.02-11.48,1.53l-2.71.37c-4.84.65-9.66,1.29-14.44,1.91-8.05,1.05-16.48,2.1-25.07,3.12-6.76.81-13.68,1.6-20.58,2.36-5.13.56-10.2,1.1-15.08,1.6-4.91.5-10.12,1.01-15.48,1.52-5.47.52-11.16,1.02-16.91,1.51-3.94.33-7.8.64-11.66.94-3.95.31-7.83.59-11.77.87l-4.62.32-2.1.14c-1.08.07-2.17.14-3.25.2Z"/></svg>